<svg width="64" height="64" viewBox="0 0 64 64" fill="none" xmlns="http://www.w3.org/2000/svg" role="img" aria-label="Burak Baris BB Monogram">
  <line x1="10" y1="10" x2="10" y2="54" stroke="#B89B5E" stroke-width="3" stroke-linecap="round"/>
  <line x1="54" y1="10" x2="54" y2="54" stroke="#B89B5E" stroke-width="3" stroke-linecap="round"/>
  <line x1="10" y1="10" x2="54" y2="10" stroke="#B89B5E" stroke-width="3" stroke-linecap="round"/>
  <line x1="10" y1="54" x2="54" y2="54" stroke="#B89B5E" stroke-width="3" stroke-linecap="round"/>

  <path d="M10 10 Q10 10 16 10 Q28 10 28 20 Q28 30 16 30 Q10 30 10 30" stroke="#B89B5E" stroke-width="3" fill="none"/>
  <line x1="10" y1="30" x2="54" y2="34" stroke="#B89B5E" stroke-width="2.5" stroke-linecap="round"/>
  <path d="M54 10 Q54 10 48 10 Q36 10 36 20 Q36 30 48 30 Q54 30 54 30" stroke="#B89B5E" stroke-width="3" fill="none"/>

  <path d="M10 34 Q10 34 16 34 Q30 34 30 44 Q30 54 16 54 Q10 54 10 54" stroke="#B89B5E" stroke-width="3" fill="none"/>
  <path d="M54 34 Q54 34 48 34 Q34 34 34 44 Q34 54 48 54 Q54 54 54 54" stroke="#B89B5E" stroke-width="3" fill="none"/>
</svg>
